<svg xmlns="http://www.w3.org/2000/svg" viewBox="0 0 57 57"><defs><style>.cls-1{fill:#6dc3bf;}.cls-2{fill:#fff;fill-rule:evenodd;}</style></defs><g id="Livello_4" data-name="Livello 4"><rect class="cls-1" width="57" height="57" rx="24.93"/><path class="cls-2" d="M29.26,43.5c5-.31,8.71-5.55,11.25-10.88C35.12,35,29.81,38.51,29.26,43.13Zm0-7.43v3.15c2.42-3.71,7.42-6.52,12.14-8.48a64.32,64.32,0,0,0,3-8.58c-14.14,2.79-15,12.36-15.1,13.91Zm5-11.28a26.79,26.79,0,0,0-5-6.3v12.1a15.8,15.8,0,0,1,5-5.8ZM16.46,32.62C19,38,22.77,43.21,27.75,43.5,27.45,38.69,22,35.08,16.46,32.62ZM21.57,24A29.63,29.63,0,0,1,28,16.35a.78.78,0,0,1,.28-.16h.49a.92.92,0,0,1,.27.16A29.28,29.28,0,0,1,35.41,24a26.77,26.77,0,0,1,9.78-3.41.73.73,0,0,1,.85.58h0a.61.61,0,0,1,0,.3A64.25,64.25,0,0,1,43.23,30a69.49,69.49,0,0,1,8.88-2.69.69.69,0,0,1,.32,0,.71.71,0,0,1,.6.82h0C50,45.22,36.75,44.91,36.72,44.91a.71.71,0,1,1,0-1.41s11.5.27,14.65-14.56a74.15,74.15,0,0,0-8.9,2.85c-2.74,6.15-7.1,12.8-13.19,13.12H27.81C21.63,44.65,17.24,38,14.49,31.8A72.24,72.24,0,0,0,5.6,28.94C8.77,43.77,20.23,43.51,20.27,43.51a.71.71,0,1,1,0,1.41S7,45.23,4,28.11a.71.71,0,0,1,.6-.82.85.85,0,0,1,.32,0A70.54,70.54,0,0,1,13.77,30,64.75,64.75,0,0,1,11,21.44a.7.7,0,0,1,.51-.87.85.85,0,0,1,.32,0A26.65,26.65,0,0,1,21.57,24Zm6.18,6.61V18.49a26.75,26.75,0,0,0-5,6.29,15.77,15.77,0,0,1,5,5.8Zm0,8.64V36.07C27.7,34.54,26.8,25,12.66,22.16a67.5,67.5,0,0,0,2.95,8.58c4.72,2,9.73,4.77,12.14,8.48Zm5.71-24.91a1.05,1.05,0,1,0,1.08,1A1.07,1.07,0,0,0,33.46,14.31ZM38,17.11a1.39,1.39,0,1,0,1.44,1.39h0A1.41,1.41,0,0,0,38,17.11Zm-9.47-5a.89.89,0,1,1-.93.89h0a.92.92,0,0,1,.93-.89ZM23.6,14.31a1.05,1.05,0,1,1-1.09,1A1.07,1.07,0,0,1,23.6,14.31Zm-4.54,2.8a1.39,1.39,0,1,1-1.44,1.39h0A1.41,1.41,0,0,1,19.06,17.11Z"/></g></svg>