<svg id="Livello_1" data-name="Livello 1" xmlns="http://www.w3.org/2000/svg" viewBox="0 0 250 200"><defs><style>.cls-1{fill:#1d71b8;}.cls-2{fill:#2e4456;}.cls-3{fill:none;stroke:#1d71b8;stroke-linecap:round;stroke-linejoin:round;stroke-width:5.62px;}</style></defs><path class="cls-1" d="M68.06,135.06q2.91-.84,5.88-1.39a74.74,74.74,0,0,1-14.29-24c6.27-1,21.7-2.32,35.3,4.34q-.32-3-.37-6c-18.44-7.72-38.11-3.19-39-3a2.65,2.65,0,0,0-2,3.19l0,.11A79.55,79.55,0,0,0,68.06,135.06Zm122.29-25.35A74.58,74.58,0,0,1,176,133.77c2,.38,4,.85,5.89,1.39a79.56,79.56,0,0,0,14.52-26.78,2.64,2.64,0,0,0-1.82-3.27l-.11,0c-.92-.22-20.59-4.75-39,3,0,2-.16,4-.37,6C168.65,107.39,184.08,108.75,190.35,109.71ZM125,98.3a10.59,10.59,0,1,0,10.59,10.59A10.59,10.59,0,0,0,125,98.3Zm0,15.89a5.3,5.3,0,1,1,5.29-5.3A5.29,5.29,0,0,1,125,114.19Z"/><path class="cls-2" d="M43.14,76a4,4,0,1,0-4-4A4,4,0,0,0,43.14,76Zm0-6a2,2,0,1,1-2,2A2,2,0,0,1,43.14,70.08ZM116.4,27.42a2.65,2.65,0,1,0,2.65,2.64A2.65,2.65,0,0,0,116.4,27.42Zm0,4a1.33,1.33,0,1,1,1.32-1.33A1.33,1.33,0,0,1,116.4,31.39Zm-75-12.51a2.65,2.65,0,1,0-2.65,2.65A2.65,2.65,0,0,0,41.38,18.88Zm-4,0a1.33,1.33,0,0,1,2.65,0,1.33,1.33,0,1,1-2.65,0Z"/><path class="cls-1" d="M68.88,48.43l2-2.59-1.24-.71L68.34,48h0L67,45.15l-1.27.73,2,2.53v0l-3-.4v1.41l3.07-.39v0l-2,2.53,1.18.74,1.35-2.92h0l1.24,2.9,1.31-.74-2-2.49v0l3.13.37V48.05l-3.13.42ZM68,22.61l-1.13,1.46.67.43.78-1.69h0L69,24.48l.75-.43-1.14-1.43v0l1.8.21V22l-1.8.24v0l1.13-1.49-.72-.41L68.34,22h0l-.74-1.66-.72.42L68,22.21v0L66.21,22v.81L68,22.59Zm10.1,58.86,1.67-2.19-1-.59-1.07,2.45h0L76.51,78.7l-1.07.62,1.64,2.14v0l-2.57-.33v1.19L77.1,82v0l-1.66,2.14,1,.63,1.14-2.47h0l1,2.45,1.1-.63-1.68-2.1v0l2.65.31V81.16l-2.65.35Z"/><circle class="cls-2" cx="16.45" cy="175.08" r="2.65"/><path class="cls-2" d="M28.37,172.43h-4a2.65,2.65,0,0,0,0,5.3h4a2.65,2.65,0,1,0,0-5.3Zm197.23,0h-4a2.65,2.65,0,0,0,0,5.3h4a2.65,2.65,0,0,0,0-5.3Z"/><circle class="cls-2" cx="233.55" cy="175.08" r="2.65"/><path class="cls-1" d="M170.21,183h-11a2.66,2.66,0,0,0,0,5.3h11a2.66,2.66,0,0,0,0-5.3Zm-79.42,0h-11a2.66,2.66,0,0,0,0,5.3h11a2.66,2.66,0,0,0,0-5.3Zm60.68,0H98.53a2.65,2.65,0,1,0,0,5.3h21.1V191H109.12a2.65,2.65,0,1,0,0,5.29h33.09a2.65,2.65,0,1,0,0-5.29H130.37v-2.65h21.1a2.65,2.65,0,1,0,0-5.3Z"/><path class="cls-2" d="M213.32,172.43h-25a79.41,79.41,0,0,0,20.6-13.07,2.64,2.64,0,0,0,.14-3.74l-.18-.18c-.81-.72-19.9-17.43-43.75-17.43h-.54A58.73,58.73,0,0,0,139,144.53c5.65-9.66,11.15-22.83,11.15-37.56,0-29.61-22.24-54.45-23.19-55.49a2.72,2.72,0,0,0-3.86,0l-.06,0c-1,1-23.19,25.88-23.19,55.49,0,14.73,5.5,27.9,11.14,37.56A58.65,58.65,0,0,0,85.46,138h-.54C61.07,138,42,154.72,41.17,155.44a2.65,2.65,0,0,0-.22,3.74l.18.18a79.41,79.41,0,0,0,20.6,13.07h-25a2.67,2.67,0,1,0,0,5.3H213.32a2.67,2.67,0,1,0,0-5.3ZM164.59,143.3h.48c17.18,0,32.15,9.89,37.82,14.17-5.61,4.44-20.52,14.78-37.95,15s-31.88-9.9-37.23-14.17C133,153.87,147.19,143.49,164.59,143.3ZM105.14,107c0-22.56,14.5-42.85,19.86-49.58,5.36,6.72,19.86,27,19.86,49.58S130.31,148.9,125,155.19C119.69,148.9,105.14,129.56,105.14,107ZM84.93,143.3h.48c17.4.19,31.63,10.57,36.88,15-5.35,4.27-19.8,14.31-37.23,14.17s-32.33-10.52-37.95-15c5.67-4.28,20.64-14.17,37.82-14.17Zm24.24,29.13A75.39,75.39,0,0,0,125,162.89a75.39,75.39,0,0,0,15.83,9.54Z"/><path class="cls-3" d="M159.93,59.94A37.23,37.23,0,1,0,205.77,14.1h0A37.24,37.24,0,0,1,159.93,60Z"/><path class="cls-1" d="M191.39,17.2a1.27,1.27,0,0,0-1-.86l-4.93-.72-2.19-4.46a1.26,1.26,0,0,0-1.69-.59,1.21,1.21,0,0,0-.59.59l-2.2,4.46-4.93.72a1.27,1.27,0,0,0-1.07,1.44,1.23,1.23,0,0,0,.37.71L176.7,22l-.85,4.9a1.28,1.28,0,0,0,.51,1.27,1.26,1.26,0,0,0,1.33.1l4.41-2.35,4.41,2.32a1.17,1.17,0,0,0,.58.13,1.27,1.27,0,0,0,1.29-1.25,1.8,1.8,0,0,0,0-.22l-.85-4.9,3.57-3.49A1.25,1.25,0,0,0,191.39,17.2Zm-6.14,3.42a1.26,1.26,0,0,0-.36,1.13l.52,3-2.72-1.43a1.26,1.26,0,0,0-1.19,0l-2.71,1.43.52-3a1.29,1.29,0,0,0-.37-1.13l-2.2-2.14,3-.44a1.25,1.25,0,0,0,1-.7l1.36-2.76,1.35,2.76a1.28,1.28,0,0,0,1,.7l3,.44Zm-7.56,9.66-4.93-.72-2.2-4.46a1.26,1.26,0,0,0-1.69-.59,1.3,1.3,0,0,0-.59.59l-2.19,4.46-4.93.72a1.27,1.27,0,0,0-1.07,1.44,1.34,1.34,0,0,0,.36.72L164,35.92l-.85,4.91a1.24,1.24,0,0,0,.5,1.26,1.26,1.26,0,0,0,1.27.1l4.47-2.35,4.41,2.32a1.31,1.31,0,0,0,.59.14,1.27,1.27,0,0,0,1.28-1.25,1.55,1.55,0,0,0,0-.22l-.85-4.91,3.57-3.48a1.28,1.28,0,0,0,0-1.8,1.34,1.34,0,0,0-.72-.36Zm-5.07,4.28a1.29,1.29,0,0,0-.37,1.13l.52,3-2.71-1.43a1.26,1.26,0,0,0-1.19,0l-2.75,1.43.52-3a1.29,1.29,0,0,0-.37-1.13l-2.21-2.14,3-.44a1.28,1.28,0,0,0,1-.7l1.35-2.76,1.36,2.76a1.28,1.28,0,0,0,1,.7l3,.44Z"/></svg>