<svg id="Livello_1" data-name="Livello 1" xmlns="http://www.w3.org/2000/svg" viewBox="0 0 50 40"><defs><style>.cls-1{fill:#1d71b8;}.cls-2{fill:#2e4456;}.cls-3{fill:none;stroke:#1d71b8;stroke-linecap:round;stroke-linejoin:round;stroke-width:0.29px;}</style></defs><path class="cls-1" d="M13.62,27.4a11.86,11.86,0,0,1,1.18-.27,15.07,15.07,0,0,1-2.86-4.79,12.57,12.57,0,0,1,7.06.87c-.05-.4-.07-.8-.08-1.2a14,14,0,0,0-7.8-.6.54.54,0,0,0-.39.64v0A15.85,15.85,0,0,0,13.62,27.4Zm24.44-5.06a14.92,14.92,0,0,1-2.88,4.81c.41.07.8.17,1.18.27a15.82,15.82,0,0,0,2.9-5.35.52.52,0,0,0-.36-.65h0a14,14,0,0,0-7.8.6c0,.4,0,.8-.08,1.2A12.57,12.57,0,0,1,38.06,22.34ZM25,20.06a2.12,2.12,0,1,0,2.12,2.12A2.12,2.12,0,0,0,25,20.06Zm0,3.17a1.06,1.06,0,1,1,1.06-1.05A1.06,1.06,0,0,1,25,23.23Z"/><path class="cls-2" d="M17,12.61a.79.79,0,0,0,.79-.79A.79.79,0,0,0,17,11a.8.8,0,0,0-.8.8A.79.79,0,0,0,17,12.61Zm0-1.19a.4.4,0,0,1,0,.8.4.4,0,1,1,0-.8ZM28,6.83a.53.53,0,1,0,.53.53A.53.53,0,0,0,28,6.83Zm0,.79a.27.27,0,1,1,0-.53.27.27,0,0,1,0,.53Zm4.77,7a.53.53,0,1,0,.53.53A.53.53,0,0,0,32.76,14.59Zm0,.8a.27.27,0,1,1,0-.53.27.27,0,0,1,0,.53ZM45.19,4.29a.53.53,0,1,0,.53.53A.53.53,0,0,0,45.19,4.29Zm0,.79a.27.27,0,1,1,0-.53.27.27,0,0,1,0,.53ZM8.29,4.19a.53.53,0,0,0-.53-.53.53.53,0,0,0,0,1.06A.53.53,0,0,0,8.29,4.19Zm-.79,0a.27.27,0,1,1,.26.26A.26.26,0,0,1,7.5,4.19Z"/><path class="cls-1" d="M5.66,16.1l.4-.52-.25-.14L5.56,16h0l-.26-.58L5,15.59l.39.5h0L4.82,16v.28l.61-.08h0L5,16.74l.23.15.27-.59h0l.25.58.26-.15-.4-.49h0l.63.07V16l-.63.08ZM43,13.65l-.23.29.13.09.16-.34h0l.15.34.15-.09-.23-.28h0l.36,0v-.16l-.36.05h0l.23-.29-.15-.08-.14.33h0l-.15-.33-.14.08.22.29h0l-.35-.05v.16l.36,0ZM35.66,2V1.74l-.61.08h0l.39-.51-.25-.14L35,1.73h0l-.25-.56-.25.14.38.5h0l-.6-.07V2l.6-.07h0l-.38.5.23.15L34.93,2h0l.24.57.26-.14L35.05,2h0Zm-2.28,9.82.33-.44-.21-.12-.21.49h0l-.21-.48-.22.12.33.43h0l-.51-.06V12l.51-.06h0l-.33.43.2.13.23-.5h0l.21.49.22-.12L33.38,12h0l.53.06v-.23l-.53.07Z"/><circle class="cls-2" cx="3.31" cy="35.4" r="0.53"/><path class="cls-2" d="M5.69,34.87H4.9a.53.53,0,1,0,0,1.06h.79a.53.53,0,0,0,0-1.06Zm39.41,0h-.79a.53.53,0,0,0,0,1.06h.79a.53.53,0,0,0,0-1.06Z"/><circle class="cls-2" cx="46.69" cy="35.4" r="0.53"/><path class="cls-1" d="M34,37H31.84a.53.53,0,0,0,0,1H34a.53.53,0,0,0,0-1ZM18.16,37H16a.53.53,0,0,0,0,1h2.19a.53.53,0,0,0,0-1Zm12.13,0H19.71a.53.53,0,1,0,0,1h4.22v.53h-2.1a.53.53,0,0,0,0,1.06h6.61a.53.53,0,0,0,0-1.06H26.07V38h4.22a.53.53,0,1,0,0-1Z"/><path class="cls-2" d="M42.65,34.87h-5a15.71,15.71,0,0,0,4.12-2.61.54.54,0,0,0,0-.75l0,0c-.16-.15-4-3.49-8.74-3.49H32.9a11.77,11.77,0,0,0-5.1,1.31A15.13,15.13,0,0,0,30,21.79c0-5.92-4.45-10.88-4.64-11.09a.55.55,0,0,0-.77,0h0c-.19.21-4.64,5.17-4.64,11.09A15.16,15.16,0,0,0,22.2,29.3,11.63,11.63,0,0,0,17.1,28H17c-4.76,0-8.58,3.34-8.74,3.49a.51.51,0,0,0,0,.74l0,0a15.71,15.71,0,0,0,4.12,2.61h-5a.54.54,0,0,0-.6.46.55.55,0,0,0,.46.6H42.65a.52.52,0,0,0,.59-.46.53.53,0,0,0-.46-.6Zm-9.74-5.82H33a13.43,13.43,0,0,1,7.55,2.83,13.29,13.29,0,0,1-7.58,3A12.52,12.52,0,0,1,25.54,32,12.39,12.39,0,0,1,32.91,29.05ZM21,21.79c0-4.51,2.9-8.56,4-9.91,1.07,1.35,4,5.4,4,9.91s-2.91,8.38-4,9.64C23.94,30.17,21,26.3,21,21.79Zm-4,7.26h.1a12.39,12.39,0,0,1,7.37,3A12.49,12.49,0,0,1,17,34.87a13.32,13.32,0,0,1-7.58-3A13.36,13.36,0,0,1,17,29.05Zm4.85,5.82A14.54,14.54,0,0,0,25,33a14.54,14.54,0,0,0,3.16,1.91Z"/><path class="cls-3" d="M36.9,8.6a1.9,1.9,0,0,0,3.65,0,1.89,1.89,0,0,0-1.32-2.33h0a1.92,1.92,0,0,1,0,1A1.89,1.89,0,0,1,36.9,8.6Z"/><path class="cls-1" d="M38.34,5.68a.11.11,0,0,0-.08-.07l-.38-.05-.17-.35a.11.11,0,0,0-.13,0,.08.08,0,0,0,0,0l-.17.35L37,5.61a.11.11,0,0,0-.09.12l0,0,.28.27-.07.38a.1.1,0,0,0,0,.1.09.09,0,0,0,.1,0l.34-.18.34.18h0a.1.1,0,0,0,.1-.1h0L38,6.05l.28-.27A.12.12,0,0,0,38.34,5.68Zm-.47.26a.09.09,0,0,0,0,.09l0,.24-.21-.11a.07.07,0,0,0-.09,0l-.21.11,0-.24a.16.16,0,0,0,0-.09l-.17-.16.24,0a.11.11,0,0,0,.07-.06l.1-.21.11.21a.11.11,0,0,0,.07.06l.24,0Zm-.59.75-.38-.06-.17-.34a.09.09,0,0,0-.17,0l-.17.34L36,6.69a.1.1,0,0,0-.08.11.14.14,0,0,0,0,.06l.28.27-.07.37a.12.12,0,0,0,0,.1.12.12,0,0,0,.1,0l.35-.18.34.18h0a.1.1,0,0,0,.1-.1v0l-.07-.37.28-.27a.1.1,0,0,0,0-.14.06.06,0,0,0-.06,0ZM36.89,7a.14.14,0,0,0,0,.09l0,.23-.2-.11a.17.17,0,0,0-.1,0l-.21.11,0-.23a.08.08,0,0,0,0-.09l-.17-.16.24,0a.08.08,0,0,0,.07-.05l.11-.22.1.22a.09.09,0,0,0,.08.05l.23,0Z"/></svg>