<svg xmlns="http://www.w3.org/2000/svg" viewBox="0 0 50 40"><defs><style>.cls-1{fill:#00a24d;}.cls-2{fill:#2e4456;}.cls-3{fill:#48b8a8;}</style></defs><g id="Livello_2" data-name="Livello 2"><path class="cls-1" d="M13.62,27.4a11.86,11.86,0,0,1,1.18-.27,15.07,15.07,0,0,1-2.86-4.79,12.57,12.57,0,0,1,7.06.87c-.05-.4-.07-.8-.08-1.2a14,14,0,0,0-7.8-.6.54.54,0,0,0-.39.64v0A15.85,15.85,0,0,0,13.62,27.4Zm24.44-5.06a14.92,14.92,0,0,1-2.88,4.81c.41.07.8.17,1.18.27a15.82,15.82,0,0,0,2.9-5.35.52.52,0,0,0-.36-.65h0a14,14,0,0,0-7.8.6c0,.4,0,.8-.08,1.2A12.57,12.57,0,0,1,38.06,22.34ZM25,20.06a2.12,2.12,0,1,0,2.12,2.12A2.12,2.12,0,0,0,25,20.06Zm0,3.17a1.06,1.06,0,1,1,1.06-1.05A1.06,1.06,0,0,1,25,23.23Z"/><path class="cls-2" d="M17.79,4.72A.8.8,0,1,0,17,3.93.79.79,0,0,0,17.79,4.72Zm0-1.19a.4.4,0,1,1,0,.79.4.4,0,0,1,0-.79Zm25.64,8.68a.53.53,0,0,0,0,1.06.53.53,0,0,0,.53-.53A.54.54,0,0,0,43.43,12.21Zm0,.8a.27.27,0,1,1,0-.53.27.27,0,0,1,0,.53Zm-31.12.55a.53.53,0,1,0,.53.53A.53.53,0,0,0,12.31,13.56Zm0,.79a.26.26,0,1,1,.27-.26A.26.26,0,0,1,12.31,14.35ZM41.22,5.46a.53.53,0,1,0,.53.53A.53.53,0,0,0,41.22,5.46Zm0,.79A.26.26,0,0,1,41,6a.27.27,0,1,1,.53,0A.26.26,0,0,1,41.22,6.25Zm-33.86-1a.53.53,0,1,0-.53.53A.53.53,0,0,0,7.36,5.25Zm-.79,0A.26.26,0,0,1,6.83,5a.27.27,0,1,1,0,.53A.26.26,0,0,1,6.57,5.25Z"/><path class="cls-3" d="M5.66,16.1l.4-.52-.25-.14L5.56,16h0l-.26-.58L5,15.59l.39.5h0L4.82,16v.28l.61-.08h0L5,16.74l.23.15.27-.59h0l.25.58.26-.15-.4-.49h0l.63.07V16l-.63.08Zm12.65-4.31-.23.29.14.09.15-.34h0l.14.34.15-.09-.23-.29h0l.36,0v-.16l-.36.05h0l.23-.29-.14-.09-.15.34h0l-.15-.33-.15.08.23.29h0L18,11.67v.16l.35,0Zm17.83-3V8.55l-.62.09h0l.39-.51L35.67,8l-.25.57h0L35.16,8l-.25.14.38.49h0l-.59-.08v.28l.6-.08h0l-.39.5.23.14.27-.57h0l.25.57.25-.15-.39-.48h0ZM9.6,1.82l.33-.44-.21-.12-.21.49h0l-.22-.48-.21.12.33.43h0l-.52-.06V2l.52-.06h0l-.33.43.2.13L9.5,2h0l.21.49.22-.12L9.6,1.94h0l.53.06V1.76l-.53.07Z"/><circle class="cls-2" cx="3.31" cy="35.4" r="0.53"/><path class="cls-2" d="M5.69,34.87H4.9a.53.53,0,1,0,0,1.06h.79a.53.53,0,0,0,0-1.06Zm39.41,0h-.79a.53.53,0,0,0,0,1.06h.79a.53.53,0,0,0,0-1.06Z"/><circle class="cls-2" cx="46.69" cy="35.4" r="0.53"/><path class="cls-1" d="M34,37H31.84a.53.53,0,0,0,0,1H34a.53.53,0,0,0,0-1ZM18.16,37H16a.53.53,0,0,0,0,1h2.19a.53.53,0,0,0,0-1Zm12.13,0H19.71a.53.53,0,1,0,0,1h4.22v.53h-2.1a.53.53,0,0,0,0,1.06h6.61a.53.53,0,0,0,0-1.06H26.07V38h4.22a.53.53,0,1,0,0-1Z"/><path class="cls-2" d="M42.65,34.87h-5a15.71,15.71,0,0,0,4.12-2.61.54.54,0,0,0,0-.75l0,0c-.16-.15-4-3.49-8.74-3.49H32.9a11.77,11.77,0,0,0-5.1,1.31A15.13,15.13,0,0,0,30,21.79c0-5.92-4.45-10.88-4.64-11.09a.55.55,0,0,0-.77,0h0c-.19.21-4.64,5.17-4.64,11.09A15.16,15.16,0,0,0,22.2,29.3,11.63,11.63,0,0,0,17.1,28H17c-4.76,0-8.58,3.34-8.74,3.49a.51.51,0,0,0,0,.74l0,0a15.71,15.71,0,0,0,4.12,2.61h-5a.54.54,0,0,0-.6.46.55.55,0,0,0,.46.6H42.65a.52.52,0,0,0,.59-.46.53.53,0,0,0-.46-.6Zm-9.74-5.82H33a13.43,13.43,0,0,1,7.55,2.83,13.29,13.29,0,0,1-7.58,3A12.52,12.52,0,0,1,25.54,32,12.39,12.39,0,0,1,32.91,29.05ZM21,21.79c0-4.51,2.9-8.56,4-9.91,1.07,1.35,4,5.4,4,9.91s-2.91,8.38-4,9.64C23.94,30.17,21,26.3,21,21.79Zm-4,7.26h.1a12.39,12.39,0,0,1,7.37,3A12.49,12.49,0,0,1,17,34.87a13.32,13.32,0,0,1-7.58-3A13.36,13.36,0,0,1,17,29.05Zm4.85,5.82A14.54,14.54,0,0,0,25,33a14.54,14.54,0,0,0,3.16,1.91Z"/><path class="cls-1" d="M12,6.4a1.3,1.3,0,1,0,1.3,1.3A1.3,1.3,0,0,0,12,6.4Zm0,2.17a.87.87,0,1,1,.87-.87A.87.87,0,0,1,12,8.57ZM12,6.2A.22.22,0,0,0,12.22,6V5.67a.22.22,0,0,0-.44,0V6A.22.22,0,0,0,12,6.2Zm-1.37.44a.23.23,0,0,0,.31,0h0a.23.23,0,0,0,0-.31l-.22-.22a.22.22,0,1,0-.32.3h0ZM10.5,7.7a.22.22,0,0,0-.22-.22H10a.22.22,0,0,0,0,.44h.31A.22.22,0,0,0,10.5,7.7Zm.13,1.06L10.41,9a.22.22,0,0,0,0,.31.21.21,0,0,0,.3,0h0l.22-.22a.22.22,0,1,0-.3-.32ZM12,9.2a.22.22,0,0,0-.22.22h0v.31a.22.22,0,1,0,.44,0V9.42A.22.22,0,0,0,12,9.2Zm1.37-.44a.22.22,0,0,0-.32.3h0l.22.22a.23.23,0,0,0,.31,0h0a.23.23,0,0,0,0-.31ZM14,7.48h-.31a.22.22,0,0,0,0,.44H14a.22.22,0,1,0,0-.44Zm-.82-.78a.23.23,0,0,0,.16-.06l.22-.22a.22.22,0,0,0-.31-.31h0l-.22.22a.23.23,0,0,0,0,.31.22.22,0,0,0,.15.06Z"/></g></svg>