<svg xmlns="http://www.w3.org/2000/svg" viewBox="0 0 250 200"><defs><style>.cls-1{fill:#00a24d;}.cls-2{fill:#2e4456;}.cls-3{fill:#48b8a8;}</style></defs><g id="Livello_2" data-name="Livello 2"><path class="cls-1" d="M67.39,135.22q2.94-.84,6-1.4a75.48,75.48,0,0,1-14.46-24.25c6.34-1,22-2.34,35.71,4.4q-.31-3-.38-6.07c-18.65-7.82-38.54-3.24-39.48-3a2.67,2.67,0,0,0-2,3.23l0,.11A80.54,80.54,0,0,0,67.39,135.22Zm123.72-25.65a75.4,75.4,0,0,1-14.54,24.35c2,.38,4,.86,6,1.4a80.33,80.33,0,0,0,14.69-27.09,2.67,2.67,0,0,0-1.84-3.31l-.11,0c-.94-.23-20.83-4.81-39.48,3,0,2-.16,4.07-.38,6.07C169.16,107.23,184.77,108.6,191.11,109.57ZM125,98a10.71,10.71,0,1,0,10.71,10.71A10.7,10.7,0,0,0,125,98Zm0,16.07a5.36,5.36,0,1,1,5.36-5.36A5.36,5.36,0,0,1,125,114.11Z"/><path class="cls-2" d="M212.5,83.18a2.68,2.68,0,1,0,2.67,2.68A2.68,2.68,0,0,0,212.5,83.18Zm0,4a1.34,1.34,0,1,1,1.33-1.33A1.33,1.33,0,0,1,212.5,87.19Zm-45.67-40.1a2.68,2.68,0,1,0,2.68,2.67A2.68,2.68,0,0,0,166.83,47.09Zm0,4a1.34,1.34,0,1,1,1.34-1.34A1.34,1.34,0,0,1,166.83,51.1Zm51.35-9.49a2.68,2.68,0,1,0,2.68,2.68A2.68,2.68,0,0,0,218.18,41.61Zm0,4a1.34,1.34,0,1,1,1.34-1.34A1.34,1.34,0,0,1,218.18,45.63Z"/><path class="cls-3" d="M185.21,77.62l2-2.62-1.26-.71-1.28,2.93h0l-1.3-2.91L182,75l2,2.56v0l-3.08-.4v1.42l3.1-.39v0l-2,2.55,1.2.76,1.36-3h0l1.26,2.94,1.32-.76-2-2.51v0l3.16.37V77.24l-3.16.42Zm-35.8-57.53-1.14,1.47L149,22l.79-1.7h0l.73,1.69.76-.44-1.16-1.45v0l1.82.22v-.82l-1.82.24v0l1.15-1.51-.73-.4-.73,1.68h0L149,17.79l-.73.42,1.13,1.47v0l-1.77-.22v.82l1.78-.23Zm50.45-.93,1.69-2-1.07-.54-1.08,2.22h0l-1.1-2.2-1.09.55,1.67,1.94v0l-2.61-.3V20l2.63-.3v0l-1.69,1.93,1,.57L199.35,20h0l1.07,2.22,1.11-.57-1.7-1.91v0l2.68.29V18.88l-2.68.32Z"/><circle class="cls-2" cx="15.19" cy="175.71" r="2.68"/><path class="cls-2" d="M27.24,173h-4a2.68,2.68,0,0,0,0,5.36h4a2.68,2.68,0,1,0,0-5.36Zm199.54,0h-4a2.68,2.68,0,0,0,0,5.36h4a2.68,2.68,0,0,0,0-5.36Z"/><circle class="cls-2" cx="234.81" cy="175.71" r="2.68"/><path class="cls-1" d="M170.74,183.75H159.61a2.68,2.68,0,0,0,0,5.35h11.13a2.68,2.68,0,0,0,0-5.35Zm-80.35,0H79.26a2.68,2.68,0,0,0,0,5.35H90.39a2.68,2.68,0,0,0,0-5.35Zm61.39,0H98.22a2.68,2.68,0,1,0,0,5.35h21.34v2.68H108.93a2.68,2.68,0,0,0,0,5.36h33.48a2.68,2.68,0,0,0,0-5.36h-12V189.1h21.34a2.68,2.68,0,1,0,0-5.35Z"/><path class="cls-2" d="M214.35,173H189a80.38,80.38,0,0,0,20.84-13.22A2.68,2.68,0,0,0,210,156l-.18-.18c-.82-.73-20.13-17.64-44.27-17.64H165a59.47,59.47,0,0,0-25.83,6.61c5.71-9.78,11.27-23.1,11.27-38,0-30-22.5-55.09-23.46-56.14a2.76,2.76,0,0,0-3.91-.06l0,.06c-1,1-23.46,26.18-23.46,56.14,0,14.9,5.56,28.22,11.27,38A59.47,59.47,0,0,0,85,138.2h-.54c-24.14,0-43.45,16.92-44.27,17.64a2.68,2.68,0,0,0-.22,3.78l.18.19A80.38,80.38,0,0,0,61,173H35.65a2.7,2.7,0,1,0-.7,5.36,2.73,2.73,0,0,0,.7,0h178.7a2.7,2.7,0,1,0,0-5.36Zm-49.29-29.47h.47c17.39,0,32.54,10,38.27,14.33-5.67,4.49-20.77,15-38.39,15.14s-32.25-10-37.67-14.34C133.05,154.25,147.45,143.75,165.06,143.56Zm-60.15-36.75c0-22.83,14.67-43.36,20.09-50.16,5.42,6.8,20.09,27.29,20.09,50.16S130.37,149.22,125,155.59C119.63,149.22,104.91,129.66,104.91,106.81ZM84.47,143.56h.47c17.61.19,32,10.69,37.32,15.13-5.42,4.33-20,14.47-37.67,14.34s-32.7-10.65-38.39-15.14c5.74-4.33,20.88-14.33,38.27-14.33ZM109,173a76.24,76.24,0,0,0,16-9.65A76.43,76.43,0,0,0,141,173Z"/><path class="cls-1" d="M52.08,22A27.79,27.79,0,1,0,79.87,49.76,27.82,27.82,0,0,0,52.08,22Zm0,46.31A18.53,18.53,0,1,1,70.6,49.76,18.55,18.55,0,0,1,52.08,68.29Zm0-50.51a4.63,4.63,0,0,0,4.63-4.64V6.54a4.63,4.63,0,0,0-9.26,0v6.6A4.63,4.63,0,0,0,52.08,17.78ZM22.91,27.14a4.62,4.62,0,0,0,6.54,0h0a4.63,4.63,0,0,0,0-6.55l-4.67-4.66a4.63,4.63,0,0,0-6.73,6.36c.06.06.12.13.18.18ZM20.09,49.76a4.64,4.64,0,0,0-4.64-4.63H8.85a4.64,4.64,0,0,0,0,9.27h6.6A4.64,4.64,0,0,0,20.09,49.76Zm2.82,22.63-4.67,4.67a4.63,4.63,0,0,0,6.43,6.66l.12-.11,4.67-4.67a4.63,4.63,0,0,0-6.32-6.78l-.23.23Zm29.17,9.36a4.63,4.63,0,0,0-4.63,4.64h0V93a4.63,4.63,0,0,0,9.26,0v-6.6a4.63,4.63,0,0,0-4.63-4.64Zm29.17-9.36a4.63,4.63,0,0,0-6.73,6.36l.18.19,4.67,4.66a4.61,4.61,0,0,0,6.53,0v0a4.62,4.62,0,0,0,0-6.54Zm14-27.26H88.7a4.64,4.64,0,0,0,0,9.27h6.6a4.64,4.64,0,1,0,0-9.27ZM78,28.5a4.6,4.6,0,0,0,3.27-1.36l4.67-4.66a4.63,4.63,0,1,0-6.55-6.55h0L74.7,20.59A4.64,4.64,0,0,0,78,28.5Z"/></g></svg>