<?xml version="1.0" encoding="utf-8"?>
<!-- Generator: Adobe Illustrator 25.0.0, SVG Export Plug-In . SVG Version: 6.00 Build 0)  -->
<svg version="1.1" id="Livello_1" xmlns="http://www.w3.org/2000/svg" xmlns:xlink="http://www.w3.org/1999/xlink" x="0px" y="0px"
	 viewBox="0 0 1385.3 1109.6" style="enable-background:new 0 0 1385.3 1109.6;" xml:space="preserve">
<style type="text/css">
	.st0{fill-rule:evenodd;clip-rule:evenodd;fill:#FFFFFF;}
</style>
<path class="st0" d="M714,971.7c137.9-8.5,242-154.1,312.8-302.5C876.7,735.7,729.2,833.1,714,961.4V971.7z M712.9,765.3v87.6
	c67.2-103.2,206.3-181.3,337.5-235.8c42.6-99.3,70-192.8,82.3-238.5C739.5,456,714.5,722.1,712.9,765.3L712.9,765.3z M850.8,451.5
	c-41.9-77-101.2-140.1-137.9-175v336.3C739,560,781.4,501.9,850.8,451.5L850.8,451.5z M358.1,669.2
	c71,148.7,175.3,294.6,313.7,302.5C663.6,838.2,512.2,737.6,358.1,669.2z M500.1,428.8c65.2-117.4,166.9-202.6,178-211.9
	c2.2-2,4.9-3.6,7.7-4.4h0.1l0.3-0.1h0.1h0.3h0.1l0.4-0.1h0.1l0.4-0.1h0.1h0.1l0.7-0.1h0.1h0.1h0.3h0.3l0,0h0.3h0.1l0,0h0.3h0.3h0.7
	h0.3h2.2h0.3h0.9h0.3h0.3l0,0h0.3h0.3h0.3h0.3l0,0h0.1l0.7,0.1h0.1h0.1l0.3,0.1h0.1l0.4,0.1h0.1h0.3h0.1h0.1l0.3,0.1h0.1h0.1
	c2.9,1,5.4,2.4,7.6,4.4c11.2,9.2,112.8,94.5,177.9,211.7c67.2-41.4,155.7-75.8,271.9-94.9c11.2-1.9,21.6,5.4,23.5,16.1l0,0
	c0.6,2.9,0.4,5.7-0.4,8.5c-2.3,9.7-27.8,115-77.7,238c127.6-48.2,236.5-72.7,246.9-75c2.9-0.7,5.9-0.9,8.9-0.4
	c11.2,1.7,18.8,11.9,16.9,22.7v0.1c-84.1,475.9-452.7,467.3-453.7,467.3c-11.3-0.1-20.4-9-20.2-19.8c0.1-10.9,9.3-19.6,20.6-19.5
	c1,0,319.7,7.5,407.3-404.7c-47.5,11.9-144.4,38.3-247.4,79.3c-76.3,170.9-197.4,355.7-366.8,364.7v0.1h-41
	c-172-7.3-293.9-193.1-370.4-364.7c-103.1-41-199.8-67.4-247.4-79.3C144.2,979.4,462.9,972,463.9,972c11.3-0.1,20.5,8.6,20.6,19.5
	c0.1,10.9-9,19.8-20.2,19.8c-1,0-369.7,8.6-453.7-467.3c-1.9-10.8,5.6-20.9,16.8-22.8c3-0.4,6-0.3,8.9,0.4
	c10.2,2.3,119.1,26.8,246.9,74.8c-49.9-123.1-75.4-228.2-77.7-238c-3-10.5,3.4-21.4,14.3-24.2c2.9-0.7,5.9-0.9,8.9-0.4
	C344.6,353,433.1,387.4,500.1,428.8z M672,612.6V276.3c-36.8,35-96,98.1-138.1,175C603.4,501.9,645.9,560,672,612.6L672,612.6z
	 M672,852.9v-87.6c-1.6-42.7-26.5-309.1-419.7-386.8c12.3,45.7,39.7,139.2,82.1,238.5C465.6,671.4,604.8,749.6,672,852.9L672,852.9z
	 M830.6,160.3c-16.8,0-30.2,13-30.2,29.1c0,16.1,13.5,29.1,30.2,29.1s30.2-13,30.2-29.1S847.2,160.3,830.6,160.3z M956.9,238
	c-22.1,0-39.9,17.2-39.9,38.6s17.9,38.6,39.9,38.6c22.1,0,39.9-17.2,39.9-38.6l0,0C996.9,255.2,979,238,956.9,238z M693.5,98.2
	c14.2,0,25.8,11.2,25.8,24.8s-11.5,24.8-25.8,24.8c-14.3,0-25.8-11.2-25.8-24.8l0,0C667.9,109.4,679.3,98.2,693.5,98.2L693.5,98.2z
	 M556.5,160.3c16.8,0,30.2,13,30.2,29.1c0,16.1-13.5,29.1-30.2,29.1c-16.8,0-30.2-13-30.2-29.1S539.9,160.3,556.5,160.3z M430.2,238
	c22.1,0,39.9,17.2,39.9,38.6s-17.9,38.6-39.9,38.6c-22.1,0-39.9-17.2-39.9-38.6l0,0C390.2,255.2,408.1,238,430.2,238z"/>
</svg>
